<svg xmlns="http://www.w3.org/2000/svg" fill="none" viewBox="0 0 16 16"><path fill="#FF6C2C" d="M4.004 5.294h3.027L6.563 7.08c-.065.238-.206.45-.402.6a1.09 1.09 0 01-.683.227H4.07a1.367 1.367 0 00-.848.28c-.25.192-.43.458-.516.76a1.412 1.412 0 00-.02.68c.045.205.133.398.26.566.127.167.292.302.482.394.2.098.42.149.642.146h.858a.484.484 0 01.395.194.462.462 0 01.09.433l-.537 1.973H3.94a3.797 3.797 0 01-1.775-.42A3.921 3.921 0 01.134 8.4l.053-.2A3.94 3.94 0 011.6 6.1a4.02 4.02 0 011.116-.593 3.9 3.9 0 011.288-.213zM5.53 13.333l2.64-9.84c.064-.238.205-.449.402-.6.195-.15.436-.23.682-.226h2.8a3.8 3.8 0 011.775.42A3.978 3.978 0 0115.91 5.78a3.709 3.709 0 01-.053 1.822l-.054.2c-.113.42-.294.819-.535 1.18A3.928 3.928 0 0112 10.722H9.576l.482-1.8c.067-.233.208-.439.402-.586.195-.151.436-.231.683-.227h.777a1.413 1.413 0 00.64-2.675 1.372 1.372 0 00-.64-.154h-1.5l-1.955 7.24c-.067.233-.208.44-.402.587-.191.149-.427.229-.67.226H5.531z"/></svg>