<svg xmlns="http://www.w3.org/2000/svg" viewBox="0 0 24 24">
  <path fill="#384859" d="M12 24c6.627 0 12-5.373 12-12S18.627 0 12 0 0 5.373 0 12s5.373 12 12 12z"/>
  <path fill="#54BCE6" d="M8 19.333h8V21H8z"/>
  <path fill="#fff" fill-rule="evenodd" d="M16.333 8.582c0-2.457-1.981-4.05-4.32-4.05-.805 0-1.58.052-2.346.3v7.5c.703.22 1.4.3 2.143.3 2.517 0 4.523-1.435 4.523-4.05zm-6.666 9.416H8V3.67a13.93 13.93 0 013.877-.57c1.598 0 3.242.44 4.456 1.52C17.433 5.602 18 7.119 18 8.582c0 1.545-.63 3.194-1.893 4.166-1.163.896-2.704 1.317-4.161 1.317-.78 0-1.526-.127-2.28-.317v4.25z" clip-rule="evenodd"/>
</svg>