<svg xmlns="http://www.w3.org/2000/svg" fill="none" viewBox="0 0 16 16"><path fill="#00749A" fill-rule="evenodd" d="M8 16A8 8 0 108 0a8 8 0 000 16zM1.635 5.162c-.387.872-.6 1.83-.6 2.838a6.95 6.95 0 003.923 6.268L1.635 5.162zm4.398 9.523c.62.184 1.28.28 1.967.28a7.04 7.04 0 002.315-.387.304.304 0 01-.048-.097l-2.141-5.87-2.093 6.074zm3.72-10.017s-.377.038-.794.068l2.519 7.498.697-2.325.078-.25c.262-.84.455-1.46.455-2.008 0-.862-.31-1.453-.571-1.918l-.08-.129c-.326-.525-.608-.98-.608-1.508 0-.64.484-1.24 1.172-1.24.014 0 .029.003.043.005.015.002.03.005.044.005a6.967 6.967 0 00-10.53 1.308c.164.01.32.01.445.01.737 0 1.86-.088 1.86-.088.378-.029.417.523.049.572 0 0-.378.038-.804.068l2.548 7.546 1.52-4.572-1.094-2.974c-.368-.02-.727-.068-.727-.068-.377-.02-.33-.6.04-.572 0 0 1.142.087 1.83.087.727 0 1.86-.087 1.86-.087.378-.029.426.523.048.572zM14.965 8c0-1.21-.31-2.354-.852-3.342.029.223.048.455.048.717 0 .707-.135 1.501-.533 2.5l-2.13 6.15A6.977 6.977 0 0014.964 8z" clip-rule="evenodd"/></svg>